<svg id="visual" viewBox="0 0 900 600" width="900" height="600" xmlns="http://www.w3.org/2000/svg" xmlns:xlink="http://www.w3.org/1999/xlink" version="1.1"><rect x="0" y="0" width="900" height="600" fill="#002233"></rect><path d="M0 45L8.8 51.7C17.7 58.3 35.3 71.7 53 70.8C70.7 70 88.3 55 106 55.8C123.7 56.7 141.3 73.3 159 77.3C176.7 81.3 194.3 72.7 212 65.2C229.7 57.7 247.3 51.3 265 50.8C282.7 50.3 300.3 55.7 318 59.5C335.7 63.3 353.3 65.7 371 67.8C388.7 70 406.3 72 423.8 71.3C441.3 70.7 458.7 67.3 476.2 57.8C493.7 48.3 511.3 32.7 529 31.2C546.7 29.7 564.3 42.3 582 51C599.7 59.7 617.3 64.3 635 65.8C652.7 67.3 670.3 65.7 688 62.2C705.7 58.7 723.3 53.3 741 51.2C758.7 49 776.3 50 794 58.5C811.7 67 829.3 83 847 86.8C864.7 90.7 882.3 82.3 891.2 78.2L900 74L900 0L891.2 0C882.3 0 864.7 0 847 0C829.3 0 811.7 0 794 0C776.3 0 758.7 0 741 0C723.3 0 705.7 0 688 0C670.3 0 652.7 0 635 0C617.3 0 599.7 0 582 0C564.3 0 546.7 0 529 0C511.3 0 493.7 0 476.2 0C458.7 0 441.3 0 423.8 0C406.3 0 388.7 0 371 0C353.3 0 335.7 0 318 0C300.3 0 282.7 0 265 0C247.3 0 229.7 0 212 0C194.3 0 176.7 0 159 0C141.3 0 123.7 0 106 0C88.3 0 70.7 0 53 0C35.3 0 17.7 0 8.8 0L0 0Z" fill="#0296E0" stroke-linecap="round" stroke-linejoin="miter"></path></svg>